<svg width="15" height="18" viewBox="0 0 15 18" fill="none" xmlns="http://www.w3.org/2000/svg">
<g id="Group">
<path id="Vector" d="M4.5 7.5H10.5M4.5 13.5H10.5M4.5 10.5H7.5M1.5 16.05V1.95C1.5 1.83065 1.54741 1.71619 1.6318 1.6318C1.71619 1.54741 1.83065 1.5 1.95 1.5H10.689C10.8083 1.50011 10.9227 1.54758 11.007 1.632L13.368 3.993C13.41 4.03492 13.4432 4.08474 13.4659 4.13957C13.4886 4.1944 13.5001 4.25317 13.5 4.3125V16.05C13.5 16.1091 13.4884 16.1676 13.4657 16.2222C13.4431 16.2768 13.41 16.3264 13.3682 16.3682C13.3264 16.41 13.2768 16.4431 13.2222 16.4657C13.1676 16.4884 13.1091 16.5 13.05 16.5H1.95C1.89091 16.5 1.83239 16.4884 1.77779 16.4657C1.7232 16.4431 1.67359 16.41 1.6318 16.3682C1.59002 16.3264 1.55687 16.2768 1.53425 16.2222C1.51164 16.1676 1.5 16.1091 1.5 16.05Z" stroke="#4C4C4C" stroke-width="1.5" stroke-linecap="round" stroke-linejoin="round"/>
<path id="Vector_2" d="M10.5 1.5V4.05C10.5 4.16935 10.5474 4.28381 10.6318 4.3682C10.7162 4.45259 10.8307 4.5 10.95 4.5H13.5" stroke="#4C4C4C" stroke-width="1.5" stroke-linecap="round" stroke-linejoin="round"/>
</g>
</svg>
