<svg width="19" height="20" viewBox="0 0 19 20" fill="none" xmlns="http://www.w3.org/2000/svg">
<g id="Group">
<path id="Vector" d="M1.5 17V3C1.5 2.46957 1.71071 1.96086 2.08579 1.58579C2.46086 1.21071 2.96957 1 3.5 1H16.9C17.0591 1 17.2117 1.06321 17.3243 1.17574C17.4368 1.28826 17.5 1.44087 17.5 1.6V14.714M3.5 15H17.5M3.5 19H17.5" stroke="#4C4C4C" stroke-width="1.5" stroke-linecap="round"/>
<path id="Vector_2" d="M3.5 19C2.96957 19 2.46086 18.7893 2.08579 18.4142C1.71071 18.0391 1.5 17.5304 1.5 17C1.5 16.4696 1.71071 15.9609 2.08579 15.5858C2.46086 15.2107 2.96957 15 3.5 15" stroke="#4C4C4C" stroke-width="1.5" stroke-linecap="round" stroke-linejoin="round"/>
<path id="Vector_3" d="M6.5 5H12.5" stroke="#4C4C4C" stroke-width="1.5" stroke-linecap="round"/>
</g>
</svg>
