<svg width="24px" height="24px" viewBox="0 0 25 25" fill="none" xmlns="http://www.w3.org/2000/svg">
<g id="iconoir:shopping-bag">
<path id="Vector" d="M14.5 5.5C14.5 4.96957 14.2892 4.46086 13.9142 4.08579C13.5391 3.71071 13.0304 3.5 12.5 3.5C11.9695 3.5 11.4608 3.71071 11.0857 4.08579C10.7107 4.46086 10.5 4.96957 10.5 5.5M19.76 10.196L21.145 19.196C21.1888 19.4808 21.1705 19.7718 21.0914 20.0489C21.0123 20.3261 20.8742 20.5828 20.6867 20.8016C20.4991 21.0204 20.2665 21.1961 20.0047 21.3167C19.7429 21.4372 19.4582 21.4997 19.17 21.5H5.82995C5.54158 21.5 5.25662 21.4377 4.99459 21.3173C4.73257 21.1969 4.49968 21.0212 4.3119 20.8024C4.12411 20.5836 3.98587 20.3267 3.90666 20.0494C3.82744 19.7721 3.80912 19.481 3.85295 19.196L5.23795 10.196C5.3106 9.72359 5.55003 9.29282 5.91288 8.9817C6.27572 8.67059 6.73799 8.4997 7.21595 8.5H17.784C18.2617 8.49994 18.7238 8.67094 19.0864 8.98203C19.449 9.29312 19.6873 9.72376 19.76 10.196Z" stroke="#8986BB" stroke-width="2" stroke-linecap="round" stroke-linejoin="round"/>
</g>
</svg>
