<svg width="20" height="21" viewBox="0 0 20 21" fill="none" xmlns="http://www.w3.org/2000/svg">
<g id="iconoir:add-user">
<path id="Vector" d="M14.1667 8.83301H16.6667M16.6667 8.83301H19.1667M16.6667 8.83301V6.33301M16.6667 8.83301V11.333M0.833374 17.1663V16.333C0.833374 14.7859 1.44796 13.3022 2.54192 12.2082C3.63588 11.1143 5.11961 10.4997 6.66671 10.4997M6.66671 10.4997C8.2138 10.4997 9.69753 11.1143 10.7915 12.2082C11.8855 13.3022 12.5 14.7859 12.5 16.333V17.1663M6.66671 10.4997C7.55076 10.4997 8.39861 10.1485 9.02373 9.52336C9.64885 8.89824 10 8.0504 10 7.16634C10 6.28229 9.64885 5.43444 9.02373 4.80932C8.39861 4.1842 7.55076 3.83301 6.66671 3.83301C5.78265 3.83301 4.93481 4.1842 4.30968 4.80932C3.68456 5.43444 3.33337 6.28229 3.33337 7.16634C3.33337 8.0504 3.68456 8.89824 4.30968 9.52336C4.93481 10.1485 5.78265 10.4997 6.66671 10.4997Z" stroke="#063062" stroke-width="1.5" stroke-linecap="round" stroke-linejoin="round"/>
</g>
</svg>
