<svg width="17" height="17" viewBox="0 0 17 17" fill="none" xmlns="http://www.w3.org/2000/svg">
<g id="iconoir:home-simple-door">
<path id="Vector" d="M6.5 14.5002H5.16667C4.45942 14.5002 3.78115 14.2193 3.28105 13.7192C2.78095 13.2191 2.5 12.5408 2.5 11.8335V7.63887C2.49999 7.18035 2.61821 6.72957 2.84325 6.33007C3.06828 5.93056 3.39252 5.59583 3.78467 5.3582L7.118 3.3382C7.53474 3.08567 8.01271 2.95215 8.5 2.95215C8.98729 2.95215 9.46526 3.08567 9.882 3.3382L13.2153 5.3582C13.6074 5.59578 13.9316 5.9304 14.1566 6.32977C14.3816 6.72915 14.4999 7.17979 14.5 7.6382V11.8335C14.5 12.5408 14.219 13.2191 13.719 13.7192C13.2189 14.2193 12.5406 14.5002 11.8333 14.5002H10.5M6.5 14.5002V11.8335C6.5 11.3031 6.71071 10.7944 7.08579 10.4193C7.46086 10.0443 7.96957 9.83354 8.5 9.83354C9.03043 9.83354 9.53914 10.0443 9.91421 10.4193C10.2893 10.7944 10.5 11.3031 10.5 11.8335V14.5002M6.5 14.5002H10.5" stroke="#B3B3B3" stroke-width="1.5" stroke-linecap="round" stroke-linejoin="round"/>
</g>
</svg>
