<svg width="259" height="28" viewBox="0 0 259 28" fill="none" xmlns="http://www.w3.org/2000/svg">
<path d="M4.58005 22.4307C6.2255 22.8735 7.93811 23.0949 9.71789 23.0949C11.7999 23.0949 13.5797 22.7883 15.0572 22.1752C16.518 21.5109 17.5758 20.6423 18.3313 19.5693C19.0701 18.4793 19.4395 17.2701 19.4395 15.9416C19.4395 14.4088 19.0365 13.1825 18.2306 12.2628C17.4246 11.3942 16.4676 10.7299 15.3594 10.3212C14.2849 9.91241 12.908 9.52068 11.229 9.14598C9.71789 8.83941 8.6601 8.53284 8.00527 8.22628C7.35045 7.91971 6.99785 7.51095 6.99785 6.89781C6.99785 6.31873 7.28329 5.84185 7.85416 5.46715C8.40824 5.05839 9.31492 4.90511 10.5742 4.90511C12.4883 4.90511 14.5031 5.46715 16.6187 6.59124L18.5328 1.94161C17.475 1.32847 16.2157 0.817518 14.8557 0.510949C13.4453 0.20438 12.0349 0 10.5742 0C8.45861 0 6.67884 0.323601 5.23487 0.970803C3.77411 1.58394 2.71632 2.50365 1.96076 3.57664C1.20519 4.64963 0.902968 5.87591 0.902968 7.20438C0.902968 8.78832 1.25556 10.0146 2.0615 10.8832C2.83385 11.8029 3.7909 12.4672 4.93264 12.8759C6.00722 13.2847 7.38403 13.6764 9.06306 14.0511C10.5742 14.3577 11.632 14.7153 12.2868 15.0219C12.992 15.3285 13.3446 15.7883 13.3446 16.4015C13.3446 17.6277 12.1525 18.2409 9.76826 18.2409C8.50898 18.2409 7.24971 18.0365 5.94006 17.6277C4.63042 17.219 3.52226 16.708 2.56521 16.0438L0.5 20.6423C1.55779 21.4088 2.86743 21.9708 4.58005 22.4307Z" fill="#3B368D"/>
<path d="M39.6382 0.459717H33.5434L23.8721 22.6349H30.1685L31.8811 18.3429L33.6945 13.6933L36.5152 6.5911L39.336 13.6933L41.1494 18.3429L42.862 22.6349H49.3095L39.6382 0.459717Z" fill="#3B368D"/>
<path d="M55.3036 0.459717V22.6349H71.9764V17.6787H61.4992V0.459717H55.3036Z" fill="#3B368D"/>
<path d="M96.0033 0.459717H78.6254V5.31373H96.0033V0.459717ZM96.0033 9.04366H78.6254V13.7444H96.0033V9.04366ZM78.6254 17.7809V22.6349H96.0033V17.7809H78.6254Z" fill="#3B368D"/>
<path d="M106.43 22.4307C108.109 22.8735 109.839 23.0949 111.618 23.0949C113.7 23.0949 115.463 22.7883 116.907 22.1752C118.368 21.5109 119.476 20.6423 120.232 19.5693C120.937 18.4793 121.29 17.2701 121.29 15.9416C121.29 14.4088 120.887 13.1825 120.081 12.2628C119.275 11.3942 118.318 10.7299 117.26 10.3212C116.152 9.91241 114.775 9.52068 113.129 9.14598C111.618 8.83941 110.561 8.53284 109.906 8.22628C109.201 7.91971 108.898 7.51095 108.898 6.89781C108.898 6.31873 109.184 5.84185 109.755 5.46715C110.309 5.05839 111.165 4.90511 112.424 4.90511C114.372 4.90511 116.387 5.46715 118.469 6.59124L120.383 1.94161C119.325 1.32847 118.066 0.817518 116.706 0.510949C115.295 0.20438 113.885 0 112.475 0C110.325 0 108.529 0.323601 107.085 0.970803C105.675 1.58394 104.566 2.50365 103.861 3.57664C103.106 4.64963 102.753 5.87591 102.753 7.20438C102.753 8.78832 103.156 10.0146 103.962 10.8832C104.734 11.8029 105.675 12.4672 106.783 12.8759C107.891 13.2847 109.268 13.6764 110.913 14.0511C112.424 14.3577 113.482 14.7153 114.187 15.0219C114.842 15.3285 115.195 15.7883 115.195 16.4015C115.195 17.6277 114.003 18.2409 111.618 18.2409C110.409 18.2409 109.1 18.0365 107.841 17.6277C106.531 17.219 105.372 16.708 104.415 16.0438L102.4 20.6423C103.408 21.4088 104.768 21.9708 106.43 22.4307Z" fill="#3B368D"/>
<path d="M153.779 8.94147L148.087 19.2115L148.137 22.6349H153.829L153.779 8.94147ZM128.392 22.686H134.134V19.6203L128.392 9.24804V22.686ZM148.691 0.459717L141.186 13.2845L133.479 0.459717H128.392L134.134 11.2407L139.725 20.4889H142.445L148.087 10.9342L153.628 0.459717H148.691Z" fill="#3B368D"/>
<path d="M175.539 0.459717H169.444L159.773 22.6349H166.069L167.782 18.3429L169.595 13.6933L172.416 6.5911L175.237 13.6933L177.05 18.3429L178.763 22.6349H185.21L175.539 0.459717Z" fill="#3B368D"/>
<path d="M205.611 11.0876V17.1679C204.502 17.6788 203.445 17.8832 202.236 17.8832C201.027 17.8832 199.969 17.6277 199.012 17.1168C198.105 16.5547 197.35 15.7883 196.846 14.8686C196.292 13.8978 196.04 12.7737 196.04 11.5474C196.04 9.65693 196.594 8.07299 197.753 6.9489C198.911 5.82482 200.422 5.21168 202.286 5.21168C204.351 5.21168 206.114 6.0292 207.625 7.66423L211.554 4.08759C210.446 2.75912 209.136 1.73723 207.474 1.07299C205.862 0.357664 204.032 0 201.984 0C199.633 0 197.534 0.493917 195.687 1.48175C193.841 2.46959 192.397 3.83212 191.356 5.56934C190.298 7.35766 189.794 9.35036 189.794 11.5474C189.794 13.7956 190.298 15.7883 191.356 17.5255C192.397 19.2968 193.841 20.6764 195.687 21.6642C197.501 22.618 199.566 23.0949 201.883 23.0949C203.495 23.0949 205.107 22.8905 206.769 22.3796C208.381 21.9027 209.808 21.2044 211.051 20.2847V11.0876H205.611Z" fill="#3B368D"/>
<path d="M219.261 0.459717V22.6349H225.457V0.459717H219.261Z" fill="#3B368D"/>
<path fill-rule="evenodd" clip-rule="evenodd" d="M255.78 27.3358C254.722 27.7956 253.614 28 252.355 28C251.146 28 250.054 27.8467 249.081 27.5401C248.073 27.2336 247.116 26.7226 246.109 26.0073C245.101 25.2409 243.993 24.219 242.784 22.8905C240.87 22.5839 239.158 21.9197 237.697 20.8467C236.219 19.7908 235.061 18.4623 234.221 16.8613C233.415 15.2603 233.012 13.489 233.012 11.5474C233.012 9.35036 233.516 7.40876 234.574 5.62044C235.632 3.88321 237.092 2.50365 238.906 1.48175C240.769 0.510949 242.885 0 245.202 0C247.519 0 249.584 0.510949 251.398 1.48175C253.261 2.50365 254.672 3.88321 255.78 5.62044C256.821 7.39173 257.341 9.3674 257.341 11.5474C257.341 14.0511 256.687 16.2993 255.327 18.1898C253.983 20.0973 252.17 21.4599 249.887 22.2774C250.323 22.7543 250.743 23.0779 251.146 23.2482C251.549 23.4526 251.985 23.5547 252.456 23.5547C253.715 23.5547 254.773 23.0438 255.78 21.9708L258.5 25.2409C257.744 26.1606 256.838 26.8248 255.78 27.3358ZM242.18 17.1168C243.053 17.6277 244.06 17.8832 245.202 17.8832C246.277 17.8832 247.267 17.6277 248.174 17.1168C249.081 16.6058 249.786 15.8394 250.34 14.8686C250.793 13.9489 251.095 12.8248 251.095 11.5474C251.095 10.3212 250.793 9.19708 250.34 8.22628C249.786 7.30657 249.081 6.54015 248.174 5.9781C247.267 5.46715 246.26 5.21168 245.202 5.21168C244.044 5.21168 243.087 5.46715 242.18 5.9781C241.273 6.54015 240.568 7.30657 240.064 8.22628C239.51 9.19708 239.258 10.3212 239.258 11.5474C239.258 12.8078 239.527 13.9148 240.064 14.8686C240.568 15.8394 241.273 16.6058 242.18 17.1168Z" fill="#3B368D"/>
</svg>
